# xmcd
#
# Track frame offsets: 
#        150
#        40220
#        89225
#        126717
#        165370
#        196932
#        232740
#
# Disc length: 3813 seconds
#
# Revision: 2
# Processed by: cddbd v1.5.2PL0 Copyright (c) Steve Scherf et al.
# Submitted via: ExactAudioCopy v0.95b2
#
DISCID=590ee307
DTITLE=???????????? - ???????????????????????
DYEAR=1900
DGENRE=Classical
TTITLE0=????????:????????????
TTITLE1=????:????????????
TTITLE2=??:??????????
TTITLE3=????????:??????????????
TTITLE4=?????:?????????
TTITLE5=????:?????????
TTITLE6=??:???????????
EXTD=
EXTT0=
EXTT1=
EXTT2=
EXTT3=
EXTT4=
EXTT5=
EXTT6=
PLAYORDER=
